<?xml version="1.0" encoding="UTF-8" standalone="no"?><svg xmlns="http://www.w3.org/2000/svg" xmlns:xlink="http://www.w3.org/1999/xlink" contentStyleType="text/css" height="461px" preserveAspectRatio="none" style="width:405px;height:461px;background:#FFFFFF;" version="1.1" viewBox="0 0 405 461" width="405px" zoomAndPan="magnify"><defs/><g><rect fill="#FFFFFF" height="278.1641" style="stroke:#181818;stroke-width:1.0;" width="10" x="50.5" y="92.6094"/><rect fill="#FFFFFF" height="30.3516" style="stroke:#181818;stroke-width:1.0;" width="10" x="354.5" y="114.9609"/><rect fill="#FFFFFF" height="30.3516" style="stroke:#181818;stroke-width:1.0;" width="10" x="354.5" y="175.6641"/><rect fill="#FFFFFF" height="55.7031" style="stroke:#181818;stroke-width:1.0;" width="10" x="354.5" y="236.3672"/><rect height="48.7031" style="stroke:#000000;stroke-width:1.5;fill:none;" width="389.5" x="10" y="251.3672"/><rect height="48.7031" style="stroke:#000000;stroke-width:1.5;fill:none;" width="389.5" x="10" y="314.0703"/><line style="stroke:#181818;stroke-width:0.5;fill:none;stroke-dasharray:5.0,5.0;" x1="55" x2="55" y1="82.6094" y2="379.7734"/><line style="stroke:#181818;stroke-width:0.5;fill:none;stroke-dasharray:5.0,5.0;" x1="359.5" x2="359.5" y1="82.6094" y2="379.7734"/><text fill="#000000" font-family="sans-serif" font-size="14" lengthAdjust="spacing" textLength="65" x="20" y="79.5332">Moderator</text><ellipse cx="55.5" cy="13.5" fill="#E2E2F0" rx="8" ry="8" style="stroke:#181818;stroke-width:0.5;"/><path d="M55.5,21.5 L55.5,48.5 M42.5,29.5 L68.5,29.5 M55.5,48.5 L42.5,63.5 M55.5,48.5 L68.5,63.5 " fill="none" style="stroke:#181818;stroke-width:0.5;"/><text fill="#000000" font-family="sans-serif" font-size="14" lengthAdjust="spacing" textLength="65" x="20" y="393.3066">Moderator</text><ellipse cx="55.5" cy="404.8828" fill="#E2E2F0" rx="8" ry="8" style="stroke:#181818;stroke-width:0.5;"/><path d="M55.5,412.8828 L55.5,439.8828 M42.5,420.8828 L68.5,420.8828 M55.5,439.8828 L42.5,454.8828 M55.5,439.8828 L68.5,454.8828 " fill="none" style="stroke:#181818;stroke-width:0.5;"/><rect fill="#E2E2F0" height="31.6094" rx="2.5" ry="2.5" style="stroke:#181818;stroke-width:0.5;" width="60" x="329.5" y="50"/><text fill="#000000" font-family="sans-serif" font-size="14" lengthAdjust="spacing" textLength="46" x="336.5" y="71.5332">System</text><rect fill="#E2E2F0" height="31.6094" rx="2.5" ry="2.5" style="stroke:#181818;stroke-width:0.5;" width="60" x="329.5" y="378.7734"/><text fill="#000000" font-family="sans-serif" font-size="14" lengthAdjust="spacing" textLength="46" x="336.5" y="400.3066">System</text><rect fill="#FFFFFF" height="278.1641" style="stroke:#181818;stroke-width:1.0;" width="10" x="50.5" y="92.6094"/><rect fill="#FFFFFF" height="30.3516" style="stroke:#181818;stroke-width:1.0;" width="10" x="354.5" y="114.9609"/><rect fill="#FFFFFF" height="30.3516" style="stroke:#181818;stroke-width:1.0;" width="10" x="354.5" y="175.6641"/><rect fill="#FFFFFF" height="55.7031" style="stroke:#181818;stroke-width:1.0;" width="10" x="354.5" y="236.3672"/><polygon fill="#181818" points="342.5,110.9609,352.5,114.9609,342.5,118.9609,346.5,114.9609" style="stroke:#181818;stroke-width:1.0;"/><line style="stroke:#181818;stroke-width:1.0;" x1="60.5" x2="348.5" y1="114.9609" y2="114.9609"/><text fill="#000000" font-family="sans-serif" font-size="13" font-weight="bold" lengthAdjust="spacing" textLength="7" x="67.5" y="110.1045">1</text><text fill="#000000" font-family="sans-serif" font-size="13" lengthAdjust="spacing" textLength="142" x="78.5" y="110.1045">Asks all pending reviews</text><polygon fill="#181818" points="71.5,141.3125,61.5,145.3125,71.5,149.3125,67.5,145.3125" style="stroke:#181818;stroke-width:1.0;"/><line style="stroke:#181818;stroke-width:1.0;stroke-dasharray:2.0,2.0;" x1="65.5" x2="358.5" y1="145.3125" y2="145.3125"/><text fill="#000000" font-family="sans-serif" font-size="13" font-weight="bold" lengthAdjust="spacing" textLength="7" x="77.5" y="140.4561">2</text><text fill="#000000" font-family="sans-serif" font-size="13" lengthAdjust="spacing" textLength="150" x="88.5" y="140.4561">Return all pending reviews</text><polygon fill="#181818" points="342.5,171.6641,352.5,175.6641,342.5,179.6641,346.5,175.6641" style="stroke:#181818;stroke-width:1.0;"/><line style="stroke:#181818;stroke-width:1.0;" x1="60.5" x2="348.5" y1="175.6641" y2="175.6641"/><text fill="#000000" font-family="sans-serif" font-size="13" font-weight="bold" lengthAdjust="spacing" textLength="7" x="67.5" y="170.8076">3</text><text fill="#000000" font-family="sans-serif" font-size="13" lengthAdjust="spacing" textLength="94" x="78.5" y="170.8076">Selects a review</text><polygon fill="#181818" points="71.5,202.0156,61.5,206.0156,71.5,210.0156,67.5,206.0156" style="stroke:#181818;stroke-width:1.0;"/><line style="stroke:#181818;stroke-width:1.0;stroke-dasharray:2.0,2.0;" x1="65.5" x2="358.5" y1="206.0156" y2="206.0156"/><text fill="#000000" font-family="sans-serif" font-size="13" font-weight="bold" lengthAdjust="spacing" textLength="7" x="77.5" y="201.1592">4</text><text fill="#000000" font-family="sans-serif" font-size="13" lengthAdjust="spacing" textLength="259" x="88.5" y="201.1592">Show the review and asks to accept or reject</text><polygon fill="#181818" points="342.5,232.3672,352.5,236.3672,342.5,240.3672,346.5,236.3672" style="stroke:#181818;stroke-width:1.0;"/><line style="stroke:#181818;stroke-width:1.0;" x1="60.5" x2="348.5" y1="236.3672" y2="236.3672"/><text fill="#000000" font-family="sans-serif" font-size="13" font-weight="bold" lengthAdjust="spacing" textLength="7" x="67.5" y="231.5107">5</text><text fill="#000000" font-family="sans-serif" font-size="13" lengthAdjust="spacing" textLength="95" x="78.5" y="231.5107">Return response</text><path d="M10,251.3672 L183,251.3672 L183,259.7188 L173,269.7188 L10,269.7188 L10,251.3672 " fill="#EEEEEE" style="stroke:#000000;stroke-width:1.5;"/><rect fill="none" height="48.7031" style="stroke:#000000;stroke-width:1.5;" width="389.5" x="10" y="251.3672"/><text fill="#000000" font-family="sans-serif" font-size="13" font-weight="bold" lengthAdjust="spacing" textLength="128" x="25" y="265.8623">alt (response is true)</text><polygon fill="#181818" points="71.5,288.0703,61.5,292.0703,71.5,296.0703,67.5,292.0703" style="stroke:#181818;stroke-width:1.0;"/><line style="stroke:#181818;stroke-width:1.0;stroke-dasharray:2.0,2.0;" x1="65.5" x2="358.5" y1="292.0703" y2="292.0703"/><text fill="#000000" font-family="sans-serif" font-size="13" font-weight="bold" lengthAdjust="spacing" textLength="7" x="77.5" y="287.2139">6</text><text fill="#000000" font-family="sans-serif" font-size="13" lengthAdjust="spacing" textLength="116" x="88.5" y="287.2139">Accepted the review</text><path d="M10,314.0703 L188,314.0703 L188,322.4219 L178,332.4219 L10,332.4219 L10,314.0703 " fill="#EEEEEE" style="stroke:#000000;stroke-width:1.5;"/><rect fill="none" height="48.7031" style="stroke:#000000;stroke-width:1.5;" width="389.5" x="10" y="314.0703"/><text fill="#000000" font-family="sans-serif" font-size="13" font-weight="bold" lengthAdjust="spacing" textLength="133" x="25" y="328.5654">alt (response is false)</text><polygon fill="#181818" points="71.5,350.7734,61.5,354.7734,71.5,358.7734,67.5,354.7734" style="stroke:#181818;stroke-width:1.0;"/><line style="stroke:#181818;stroke-width:1.0;stroke-dasharray:2.0,2.0;" x1="65.5" x2="358.5" y1="354.7734" y2="354.7734"/><text fill="#000000" font-family="sans-serif" font-size="13" font-weight="bold" lengthAdjust="spacing" textLength="7" x="77.5" y="349.917">7</text><text fill="#000000" font-family="sans-serif" font-size="13" lengthAdjust="spacing" textLength="98" x="88.5" y="349.917">Reject the review</text><!--MD5=[185141ed35f324a0c6e0451d47005f35]
@startuml
'https://plantuml.com/sequence-diagram

autoactivate on
autonumber

actor "Moderator" as Moderator
participant "System" as System

activate Moderator

Moderator -> System: Asks all pending reviews
System - -> Moderator: Return all pending reviews
Moderator -> System: Selects a review
System - -> Moderator: Show the review and asks to accept or reject
Moderator -> System: Return response
group alt (response is true)
System - -> Moderator: Accepted the review
end alt
group alt (response is false)
System - -> Moderator: Reject the review
end alt



@enduml

@startuml

autoactivate on
autonumber

actor "Moderator" as Moderator
participant "System" as System

activate Moderator

Moderator -> System: Asks all pending reviews
System - -> Moderator: Return all pending reviews
Moderator -> System: Selects a review
System - -> Moderator: Show the review and asks to accept or reject
Moderator -> System: Return response
group alt (response is true)
System - -> Moderator: Accepted the review
end alt
group alt (response is false)
System - -> Moderator: Reject the review
end alt



@enduml

PlantUML version 1.2022.4(Sat Apr 09 14:29:17 BST 2022)
(GPL source distribution)
Java Runtime: OpenJDK Runtime Environment
JVM: OpenJDK 64-Bit Server VM
Default Encoding: Cp1252
Language: pt
Country: PT
--></g></svg>
