<?xml version="1.0" encoding="UTF-8" standalone="no"?><svg xmlns="http://www.w3.org/2000/svg" xmlns:xlink="http://www.w3.org/1999/xlink" contentStyleType="text/css" height="548px" preserveAspectRatio="none" style="width:329px;height:548px;background:#FFFFFF;" version="1.1" viewBox="0 0 329 548" width="329px" zoomAndPan="magnify"><defs/><g><rect fill="#FFFFFF" height="365.2188" style="stroke:#181818;stroke-width:1.0;" width="10" x="17.5" y="92.6094"/><rect fill="#FFFFFF" height="30.3516" style="stroke:#181818;stroke-width:1.0;" width="10" x="288.5" y="114.9609"/><rect fill="#FFFFFF" height="30.3516" style="stroke:#181818;stroke-width:1.0;" width="10" x="288.5" y="175.6641"/><rect fill="#FFFFFF" height="30.3516" style="stroke:#181818;stroke-width:1.0;" width="10" x="288.5" y="236.3672"/><rect fill="#FFFFFF" height="30.3516" style="stroke:#181818;stroke-width:1.0;" width="10" x="288.5" y="297.0703"/><rect fill="#FFFFFF" height="30.3516" style="stroke:#181818;stroke-width:1.0;" width="10" x="288.5" y="357.7734"/><rect fill="#FFFFFF" height="30.3516" style="stroke:#181818;stroke-width:1.0;" width="10" x="288.5" y="418.4766"/><line style="stroke:#181818;stroke-width:0.5;stroke-dasharray:5.0,5.0;" x1="22" x2="22" y1="82.6094" y2="466.8281"/><line style="stroke:#181818;stroke-width:0.5;stroke-dasharray:5.0,5.0;" x1="293.5" x2="293.5" y1="82.6094" y2="466.8281"/><text fill="#000000" font-family="sans-serif" font-size="14" lengthAdjust="spacing" textLength="29" x="5" y="79.5332">User</text><ellipse cx="22.5" cy="13.5" fill="#E2E2F0" rx="8" ry="8" style="stroke:#181818;stroke-width:0.5;"/><path d="M22.5,21.5 L22.5,48.5 M9.5,29.5 L35.5,29.5 M22.5,48.5 L9.5,63.5 M22.5,48.5 L35.5,63.5 " fill="none" style="stroke:#181818;stroke-width:0.5;"/><text fill="#000000" font-family="sans-serif" font-size="14" lengthAdjust="spacing" textLength="29" x="5" y="480.3613">User</text><ellipse cx="22.5" cy="491.9375" fill="#E2E2F0" rx="8" ry="8" style="stroke:#181818;stroke-width:0.5;"/><path d="M22.5,499.9375 L22.5,526.9375 M9.5,507.9375 L35.5,507.9375 M22.5,526.9375 L9.5,541.9375 M22.5,526.9375 L35.5,541.9375 " fill="none" style="stroke:#181818;stroke-width:0.5;"/><rect fill="#E2E2F0" height="31.6094" rx="2.5" ry="2.5" style="stroke:#181818;stroke-width:0.5;" width="60" x="263.5" y="50"/><text fill="#000000" font-family="sans-serif" font-size="14" lengthAdjust="spacing" textLength="46" x="270.5" y="71.5332">System</text><rect fill="#E2E2F0" height="31.6094" rx="2.5" ry="2.5" style="stroke:#181818;stroke-width:0.5;" width="60" x="263.5" y="465.8281"/><text fill="#000000" font-family="sans-serif" font-size="14" lengthAdjust="spacing" textLength="46" x="270.5" y="487.3613">System</text><rect fill="#FFFFFF" height="365.2188" style="stroke:#181818;stroke-width:1.0;" width="10" x="17.5" y="92.6094"/><rect fill="#FFFFFF" height="30.3516" style="stroke:#181818;stroke-width:1.0;" width="10" x="288.5" y="114.9609"/><rect fill="#FFFFFF" height="30.3516" style="stroke:#181818;stroke-width:1.0;" width="10" x="288.5" y="175.6641"/><rect fill="#FFFFFF" height="30.3516" style="stroke:#181818;stroke-width:1.0;" width="10" x="288.5" y="236.3672"/><rect fill="#FFFFFF" height="30.3516" style="stroke:#181818;stroke-width:1.0;" width="10" x="288.5" y="297.0703"/><rect fill="#FFFFFF" height="30.3516" style="stroke:#181818;stroke-width:1.0;" width="10" x="288.5" y="357.7734"/><rect fill="#FFFFFF" height="30.3516" style="stroke:#181818;stroke-width:1.0;" width="10" x="288.5" y="418.4766"/><polygon fill="#181818" points="276.5,110.9609,286.5,114.9609,276.5,118.9609,280.5,114.9609" style="stroke:#181818;stroke-width:1.0;"/><line style="stroke:#181818;stroke-width:1.0;" x1="27.5" x2="282.5" y1="114.9609" y2="114.9609"/><text fill="#000000" font-family="sans-serif" font-size="13" font-weight="bold" lengthAdjust="spacing" textLength="7" x="34.5" y="110.1045">1</text><text fill="#000000" font-family="sans-serif" font-size="13" lengthAdjust="spacing" textLength="193" x="45.5" y="110.1045">Asks to show catalog of products</text><polygon fill="#181818" points="38.5,141.3125,28.5,145.3125,38.5,149.3125,34.5,145.3125" style="stroke:#181818;stroke-width:1.0;"/><line style="stroke:#181818;stroke-width:1.0;stroke-dasharray:2.0,2.0;" x1="32.5" x2="292.5" y1="145.3125" y2="145.3125"/><text fill="#000000" font-family="sans-serif" font-size="13" font-weight="bold" lengthAdjust="spacing" textLength="7" x="44.5" y="140.4561">2</text><text fill="#000000" font-family="sans-serif" font-size="13" lengthAdjust="spacing" textLength="152" x="55.5" y="140.4561">Return catalog of products</text><polygon fill="#181818" points="276.5,171.6641,286.5,175.6641,276.5,179.6641,280.5,175.6641" style="stroke:#181818;stroke-width:1.0;"/><line style="stroke:#181818;stroke-width:1.0;" x1="27.5" x2="282.5" y1="175.6641" y2="175.6641"/><text fill="#000000" font-family="sans-serif" font-size="13" font-weight="bold" lengthAdjust="spacing" textLength="7" x="34.5" y="170.8076">3</text><text fill="#000000" font-family="sans-serif" font-size="13" lengthAdjust="spacing" textLength="102" x="45.5" y="170.8076">Selects a product</text><polygon fill="#181818" points="38.5,202.0156,28.5,206.0156,38.5,210.0156,34.5,206.0156" style="stroke:#181818;stroke-width:1.0;"/><line style="stroke:#181818;stroke-width:1.0;stroke-dasharray:2.0,2.0;" x1="32.5" x2="292.5" y1="206.0156" y2="206.0156"/><text fill="#000000" font-family="sans-serif" font-size="13" font-weight="bold" lengthAdjust="spacing" textLength="7" x="44.5" y="201.1592">4</text><text fill="#000000" font-family="sans-serif" font-size="13" lengthAdjust="spacing" textLength="132" x="55.5" y="201.1592">Show selected product</text><polygon fill="#181818" points="276.5,232.3672,286.5,236.3672,276.5,240.3672,280.5,236.3672" style="stroke:#181818;stroke-width:1.0;"/><line style="stroke:#181818;stroke-width:1.0;" x1="27.5" x2="282.5" y1="236.3672" y2="236.3672"/><text fill="#000000" font-family="sans-serif" font-size="13" font-weight="bold" lengthAdjust="spacing" textLength="7" x="34.5" y="231.5107">5</text><text fill="#000000" font-family="sans-serif" font-size="13" lengthAdjust="spacing" textLength="231" x="45.5" y="231.5107">Asks to show All reviews of that product</text><polygon fill="#181818" points="38.5,262.7188,28.5,266.7188,38.5,270.7188,34.5,266.7188" style="stroke:#181818;stroke-width:1.0;"/><line style="stroke:#181818;stroke-width:1.0;stroke-dasharray:2.0,2.0;" x1="32.5" x2="292.5" y1="266.7188" y2="266.7188"/><text fill="#000000" font-family="sans-serif" font-size="13" font-weight="bold" lengthAdjust="spacing" textLength="7" x="44.5" y="261.8623">6</text><text fill="#000000" font-family="sans-serif" font-size="13" lengthAdjust="spacing" textLength="78" x="55.5" y="261.8623">Show reviews</text><polygon fill="#181818" points="276.5,293.0703,286.5,297.0703,276.5,301.0703,280.5,297.0703" style="stroke:#181818;stroke-width:1.0;"/><line style="stroke:#181818;stroke-width:1.0;" x1="27.5" x2="282.5" y1="297.0703" y2="297.0703"/><text fill="#000000" font-family="sans-serif" font-size="13" font-weight="bold" lengthAdjust="spacing" textLength="7" x="34.5" y="292.2139">7</text><text fill="#000000" font-family="sans-serif" font-size="13" lengthAdjust="spacing" textLength="94" x="45.5" y="292.2139">Selects a review</text><polygon fill="#181818" points="38.5,323.4219,28.5,327.4219,38.5,331.4219,34.5,327.4219" style="stroke:#181818;stroke-width:1.0;"/><line style="stroke:#181818;stroke-width:1.0;stroke-dasharray:2.0,2.0;" x1="32.5" x2="292.5" y1="327.4219" y2="327.4219"/><text fill="#000000" font-family="sans-serif" font-size="13" font-weight="bold" lengthAdjust="spacing" textLength="7" x="44.5" y="322.5654">8</text><text fill="#000000" font-family="sans-serif" font-size="13" lengthAdjust="spacing" textLength="71" x="55.5" y="322.5654">Show review</text><polygon fill="#181818" points="276.5,353.7734,286.5,357.7734,276.5,361.7734,280.5,357.7734" style="stroke:#181818;stroke-width:1.0;"/><line style="stroke:#181818;stroke-width:1.0;" x1="27.5" x2="282.5" y1="357.7734" y2="357.7734"/><text fill="#000000" font-family="sans-serif" font-size="13" font-weight="bold" lengthAdjust="spacing" textLength="7" x="34.5" y="352.917">9</text><text fill="#000000" font-family="sans-serif" font-size="13" lengthAdjust="spacing" textLength="84" x="45.5" y="352.917">Vote for review</text><polygon fill="#181818" points="38.5,384.125,28.5,388.125,38.5,392.125,34.5,388.125" style="stroke:#181818;stroke-width:1.0;"/><line style="stroke:#181818;stroke-width:1.0;stroke-dasharray:2.0,2.0;" x1="32.5" x2="292.5" y1="388.125" y2="388.125"/><text fill="#000000" font-family="sans-serif" font-size="13" font-weight="bold" lengthAdjust="spacing" textLength="14" x="44.5" y="383.2686">10</text><text fill="#000000" font-family="sans-serif" font-size="13" lengthAdjust="spacing" textLength="122" x="62.5" y="383.2686">Asks for confirmation</text><polygon fill="#181818" points="276.5,414.4766,286.5,418.4766,276.5,422.4766,280.5,418.4766" style="stroke:#181818;stroke-width:1.0;"/><line style="stroke:#181818;stroke-width:1.0;" x1="27.5" x2="282.5" y1="418.4766" y2="418.4766"/><text fill="#000000" font-family="sans-serif" font-size="13" font-weight="bold" lengthAdjust="spacing" textLength="14" x="34.5" y="413.6201">11</text><text fill="#000000" font-family="sans-serif" font-size="13" lengthAdjust="spacing" textLength="51" x="52.5" y="413.6201">Confirms</text><polygon fill="#181818" points="38.5,444.8281,28.5,448.8281,38.5,452.8281,34.5,448.8281" style="stroke:#181818;stroke-width:1.0;"/><line style="stroke:#181818;stroke-width:1.0;stroke-dasharray:2.0,2.0;" x1="32.5" x2="292.5" y1="448.8281" y2="448.8281"/><text fill="#000000" font-family="sans-serif" font-size="13" font-weight="bold" lengthAdjust="spacing" textLength="14" x="44.5" y="443.9717">12</text><text fill="#000000" font-family="sans-serif" font-size="13" lengthAdjust="spacing" textLength="109" x="62.5" y="443.9717">Informs of success</text><!--MD5=[4706d5d4bbc548ff34dac1922cb55b9a]
@startuml
'https://plantuml.com/sequence-diagram

autoactivate on
autonumber

actor "User" as User
participant "System" as System

activate User

User -> System: Asks to show catalog of products
System - -> User: Return catalog of products
User -> System: Selects a product
System - -> User: Show selected product
User -> System: Asks to show All reviews of that product
System - -> User: Show reviews
User -> System: Selects a review
System - -> User: Show review
User -> System: Vote for review
System - -> User: Asks for confirmation
User -> System: Confirms
System - -> User: Informs of success



@enduml

@startuml

autoactivate on
autonumber

actor "User" as User
participant "System" as System

activate User

User -> System: Asks to show catalog of products
System - -> User: Return catalog of products
User -> System: Selects a product
System - -> User: Show selected product
User -> System: Asks to show All reviews of that product
System - -> User: Show reviews
User -> System: Selects a review
System - -> User: Show review
User -> System: Vote for review
System - -> User: Asks for confirmation
User -> System: Confirms
System - -> User: Informs of success



@enduml

PlantUML version 1.2022.4(Sat Apr 09 14:29:17 BST 2022)
(GPL source distribution)
Java Runtime: OpenJDK Runtime Environment
JVM: OpenJDK 64-Bit Server VM
Default Encoding: Cp1252
Language: pt
Country: PT
--></g></svg>