<?xml version="1.0" encoding="UTF-8" standalone="no"?><svg xmlns="http://www.w3.org/2000/svg" xmlns:xlink="http://www.w3.org/1999/xlink" contentStyleType="text/css" height="319px" preserveAspectRatio="none" style="width:879px;height:319px;background:#FFFFFF;" version="1.1" viewBox="0 0 879 319" width="879px" zoomAndPan="magnify"><defs/><g><rect fill="#FFFFFF" height="195.1094" style="stroke:#181818;stroke-width:1.0;" width="10" x="232" y="69.9609"/><rect fill="#FFFFFF" height="134.4063" style="stroke:#181818;stroke-width:1.0;" width="10" x="407" y="100.3125"/><rect fill="#FFFFFF" height="143.4063" style="stroke:#181818;stroke-width:1.0;" width="10" x="582" y="130.6641"/><rect fill="#FFFFFF" height="35.3516" style="stroke:#181818;stroke-width:1.0;" width="10" x="587" y="169.0156"/><line style="stroke:#181818;stroke-width:0.5;stroke-dasharray:5.0,5.0;" x1="79" x2="79" y1="37.6094" y2="283.0703"/><line style="stroke:#181818;stroke-width:0.5;stroke-dasharray:5.0,5.0;" x1="236.5" x2="236.5" y1="37.6094" y2="283.0703"/><line style="stroke:#181818;stroke-width:0.5;stroke-dasharray:5.0,5.0;" x1="412" x2="412" y1="37.6094" y2="283.0703"/><line style="stroke:#181818;stroke-width:0.5;stroke-dasharray:5.0,5.0;" x1="586.5" x2="586.5" y1="37.6094" y2="283.0703"/><line style="stroke:#181818;stroke-width:0.5;stroke-dasharray:5.0,5.0;" x1="810.5" x2="810.5" y1="37.6094" y2="283.0703"/><rect fill="#E2E2F0" height="31.6094" rx="2.5" ry="2.5" style="stroke:#181818;stroke-width:0.5;" width="148" x="5" y="5"/><text fill="#000000" font-family="sans-serif" font-size="14" lengthAdjust="spacing" textLength="134" x="12" y="26.5332">:RegisteredCustomer</text><rect fill="#E2E2F0" height="31.6094" rx="2.5" ry="2.5" style="stroke:#181818;stroke-width:0.5;" width="148" x="5" y="282.0703"/><text fill="#000000" font-family="sans-serif" font-size="14" lengthAdjust="spacing" textLength="134" x="12" y="303.6035">:RegisteredCustomer</text><rect fill="#E2E2F0" height="31.6094" rx="2.5" ry="2.5" style="stroke:#181818;stroke-width:0.5;" width="125" x="174.5" y="5"/><text fill="#000000" font-family="sans-serif" font-size="14" lengthAdjust="spacing" textLength="111" x="181.5" y="26.5332">:ReviewController</text><rect fill="#E2E2F0" height="31.6094" rx="2.5" ry="2.5" style="stroke:#181818;stroke-width:0.5;" width="125" x="174.5" y="282.0703"/><text fill="#000000" font-family="sans-serif" font-size="14" lengthAdjust="spacing" textLength="111" x="181.5" y="303.6035">:ReviewController</text><rect fill="#E2E2F0" height="31.6094" rx="2.5" ry="2.5" style="stroke:#181818;stroke-width:0.5;" width="110" x="357" y="5"/><text fill="#000000" font-family="sans-serif" font-size="14" lengthAdjust="spacing" textLength="96" x="364" y="26.5332">:ReviewService</text><rect fill="#E2E2F0" height="31.6094" rx="2.5" ry="2.5" style="stroke:#181818;stroke-width:0.5;" width="110" x="357" y="282.0703"/><text fill="#000000" font-family="sans-serif" font-size="14" lengthAdjust="spacing" textLength="96" x="364" y="303.6035">:ReviewService</text><rect fill="#E2E2F0" height="31.6094" rx="2.5" ry="2.5" style="stroke:#181818;stroke-width:0.5;" width="131" x="521.5" y="5"/><text fill="#000000" font-family="sans-serif" font-size="14" lengthAdjust="spacing" textLength="117" x="528.5" y="26.5332">:ReviewRepository</text><rect fill="#E2E2F0" height="31.6094" rx="2.5" ry="2.5" style="stroke:#181818;stroke-width:0.5;" width="131" x="521.5" y="282.0703"/><text fill="#000000" font-family="sans-serif" font-size="14" lengthAdjust="spacing" textLength="117" x="528.5" y="303.6035">:ReviewRepository</text><rect fill="#E2E2F0" height="31.6094" rx="2.5" ry="2.5" style="stroke:#181818;stroke-width:0.5;" width="125" x="748.5" y="5"/><text fill="#000000" font-family="sans-serif" font-size="14" lengthAdjust="spacing" textLength="111" x="755.5" y="26.5332">list:List&lt;Reviews&gt;</text><rect fill="#E2E2F0" height="31.6094" rx="2.5" ry="2.5" style="stroke:#181818;stroke-width:0.5;" width="125" x="748.5" y="282.0703"/><text fill="#000000" font-family="sans-serif" font-size="14" lengthAdjust="spacing" textLength="111" x="755.5" y="303.6035">list:List&lt;Reviews&gt;</text><rect fill="#FFFFFF" height="195.1094" style="stroke:#181818;stroke-width:1.0;" width="10" x="232" y="69.9609"/><rect fill="#FFFFFF" height="134.4063" style="stroke:#181818;stroke-width:1.0;" width="10" x="407" y="100.3125"/><rect fill="#FFFFFF" height="143.4063" style="stroke:#181818;stroke-width:1.0;" width="10" x="582" y="130.6641"/><rect fill="#FFFFFF" height="35.3516" style="stroke:#181818;stroke-width:1.0;" width="10" x="587" y="169.0156"/><polygon fill="#181818" points="220,65.9609,230,69.9609,220,73.9609,224,69.9609" style="stroke:#181818;stroke-width:1.0;"/><line style="stroke:#181818;stroke-width:1.0;" x1="79" x2="226" y1="69.9609" y2="69.9609"/><text fill="#000000" font-family="sans-serif" font-size="13" font-weight="bold" lengthAdjust="spacing" textLength="7" x="86" y="65.1045">1</text><text fill="#000000" font-family="sans-serif" font-size="13" lengthAdjust="spacing" textLength="123" x="97" y="65.1045">GET findMyReviews()</text><polygon fill="#181818" points="395,96.3125,405,100.3125,395,104.3125,399,100.3125" style="stroke:#181818;stroke-width:1.0;"/><line style="stroke:#181818;stroke-width:1.0;" x1="242" x2="401" y1="100.3125" y2="100.3125"/><text fill="#000000" font-family="sans-serif" font-size="13" font-weight="bold" lengthAdjust="spacing" textLength="7" x="249" y="95.4561">2</text><text fill="#000000" font-family="sans-serif" font-size="13" lengthAdjust="spacing" textLength="135" x="260" y="95.4561">findMyReviews(Long id)</text><polygon fill="#181818" points="570,126.6641,580,130.6641,570,134.6641,574,130.6641" style="stroke:#181818;stroke-width:1.0;"/><line style="stroke:#181818;stroke-width:1.0;" x1="417" x2="576" y1="130.6641" y2="130.6641"/><text fill="#000000" font-family="sans-serif" font-size="13" font-weight="bold" lengthAdjust="spacing" textLength="7" x="424" y="125.8076">3</text><text fill="#000000" font-family="sans-serif" font-size="13" lengthAdjust="spacing" textLength="135" x="435" y="125.8076">findMyReviews(Long id)</text><line style="stroke:#181818;stroke-width:1.0;" x1="592" x2="639" y1="156.0156" y2="156.0156"/><line style="stroke:#181818;stroke-width:1.0;" x1="639" x2="639" y1="156.0156" y2="169.0156"/><line style="stroke:#181818;stroke-width:1.0;" x1="598" x2="639" y1="169.0156" y2="169.0156"/><polygon fill="#181818" points="608,165.0156,598,169.0156,608,173.0156,604,169.0156" style="stroke:#181818;stroke-width:1.0;"/><text fill="#000000" font-family="sans-serif" font-size="13" font-weight="bold" lengthAdjust="spacing" textLength="7" x="604" y="151.1592">4</text><text fill="#000000" font-family="sans-serif" font-size="13" lengthAdjust="spacing" textLength="189" x="615" y="151.1592">findMyReviews(Long customerId)</text><polygon fill="#181818" points="428,200.3672,418,204.3672,428,208.3672,424,204.3672" style="stroke:#181818;stroke-width:1.0;"/><line style="stroke:#181818;stroke-width:1.0;stroke-dasharray:2.0,2.0;" x1="422" x2="581" y1="204.3672" y2="204.3672"/><text fill="#000000" font-family="sans-serif" font-size="13" font-weight="bold" lengthAdjust="spacing" textLength="7" x="434" y="199.5107">5</text><text fill="#000000" font-family="sans-serif" font-size="13" lengthAdjust="spacing" textLength="17" x="445" y="199.5107">list</text><polygon fill="#181818" points="253,230.7188,243,234.7188,253,238.7188,249,234.7188" style="stroke:#181818;stroke-width:1.0;"/><line style="stroke:#181818;stroke-width:1.0;stroke-dasharray:2.0,2.0;" x1="247" x2="411" y1="234.7188" y2="234.7188"/><text fill="#000000" font-family="sans-serif" font-size="13" font-weight="bold" lengthAdjust="spacing" textLength="7" x="259" y="229.8623">6</text><text fill="#000000" font-family="sans-serif" font-size="13" lengthAdjust="spacing" textLength="17" x="270" y="229.8623">list</text><polygon fill="#181818" points="90,261.0703,80,265.0703,90,269.0703,86,265.0703" style="stroke:#181818;stroke-width:1.0;"/><line style="stroke:#181818;stroke-width:1.0;stroke-dasharray:2.0,2.0;" x1="84" x2="236" y1="265.0703" y2="265.0703"/><text fill="#000000" font-family="sans-serif" font-size="13" font-weight="bold" lengthAdjust="spacing" textLength="7" x="96" y="260.2139">7</text><text fill="#000000" font-family="sans-serif" font-size="13" lengthAdjust="spacing" textLength="17" x="107" y="260.2139">list</text><!--MD5=[96a405c5702cefa989ba06371cf61bbf]
@startuml
'https://plantuml.com/sequence-diagram
autoactivate on
autonumber

participant ":RegisteredCustomer" as Customer
participant ":ReviewController" as Controller
participant ":ReviewService" as Service
participant ":ReviewRepository" as Repository
participant "list:List<Reviews>" as List

Customer -> Controller : GET findMyReviews()
Controller -> Service : findMyReviews(Long id)
Service -> Repository : findMyReviews(Long id)
Repository -> Repository : findMyReviews(Long customerId)
Repository - -> Service : list
Service - -> Controller : list
Controller - -> Customer : list

@enduml

@startuml
autoactivate on
autonumber

participant ":RegisteredCustomer" as Customer
participant ":ReviewController" as Controller
participant ":ReviewService" as Service
participant ":ReviewRepository" as Repository
participant "list:List<Reviews>" as List

Customer -> Controller : GET findMyReviews()
Controller -> Service : findMyReviews(Long id)
Service -> Repository : findMyReviews(Long id)
Repository -> Repository : findMyReviews(Long customerId)
Repository - -> Service : list
Service - -> Controller : list
Controller - -> Customer : list

@enduml

PlantUML version 1.2022.4(Sat Apr 09 14:29:17 BST 2022)
(GPL source distribution)
Java Runtime: OpenJDK Runtime Environment
JVM: OpenJDK 64-Bit Server VM
Default Encoding: Cp1252
Language: pt
Country: PT
--></g></svg>