<?xml version="1.0" encoding="UTF-8" standalone="no"?><svg xmlns="http://www.w3.org/2000/svg" xmlns:xlink="http://www.w3.org/1999/xlink" contentStyleType="text/css" height="492px" preserveAspectRatio="none" style="width:775px;height:492px;background:#FFFFFF;" version="1.1" viewBox="0 0 775 492" width="775px" zoomAndPan="magnify"><defs/><g><rect fill="#FFFFFF" height="179.1094" style="stroke:#181818;stroke-width:1.0;" width="10" x="157.5" y="69.9609"/><rect fill="#FFFFFF" height="282.1641" style="stroke:#181818;stroke-width:1.0;" width="10" x="366.5" y="125.6641"/><rect fill="#FFFFFF" height="221.4609" style="stroke:#181818;stroke-width:1.0;" width="10" x="515.5" y="156.0156"/><rect fill="#FFFFFF" height="30.3516" style="stroke:#181818;stroke-width:1.0;" width="10" x="520.5" y="279.4219"/><rect fill="#FFFFFF" height="160.7578" style="stroke:#181818;stroke-width:1.0;" width="10" x="686.5" y="186.3672"/><rect height="109.4063" style="stroke:#000000;stroke-width:1.5;fill:none;" width="681" x="88" y="84.9609"/><rect height="109.4063" style="stroke:#000000;stroke-width:1.5;fill:none;" width="681" x="88" y="208.3672"/><line style="stroke:#181818;stroke-width:0.5;fill:none;stroke-dasharray:5.0,5.0;" x1="46" x2="46" y1="37.6094" y2="456.1797"/><line style="stroke:#181818;stroke-width:0.5;fill:none;stroke-dasharray:5.0,5.0;" x1="162" x2="162" y1="37.6094" y2="456.1797"/><line style="stroke:#181818;stroke-width:0.5;fill:none;stroke-dasharray:5.0,5.0;" x1="371.5" x2="371.5" y1="37.6094" y2="456.1797"/><line style="stroke:#181818;stroke-width:0.5;fill:none;stroke-dasharray:5.0,5.0;" x1="520" x2="520" y1="37.6094" y2="456.1797"/><line style="stroke:#181818;stroke-width:0.5;fill:none;stroke-dasharray:5.0,5.0;" x1="691" x2="691" y1="37.6094" y2="456.1797"/><rect fill="#E2E2F0" height="31.6094" rx="2.5" ry="2.5" style="stroke:#181818;stroke-width:0.5;" width="83" x="5" y="5"/><text fill="#000000" font-family="sans-serif" font-size="14" lengthAdjust="spacing" textLength="69" x="12" y="26.5332">:Moderator</text><rect fill="#E2E2F0" height="31.6094" rx="2.5" ry="2.5" style="stroke:#181818;stroke-width:0.5;" width="83" x="5" y="455.1797"/><text fill="#000000" font-family="sans-serif" font-size="14" lengthAdjust="spacing" textLength="69" x="12" y="476.7129">:Moderator</text><rect fill="#E2E2F0" height="31.6094" rx="2.5" ry="2.5" style="stroke:#181818;stroke-width:0.5;" width="129" x="98" y="5"/><text fill="#000000" font-family="sans-serif" font-size="14" lengthAdjust="spacing" textLength="115" x="105" y="26.5332">:ProductController</text><rect fill="#E2E2F0" height="31.6094" rx="2.5" ry="2.5" style="stroke:#181818;stroke-width:0.5;" width="129" x="98" y="455.1797"/><text fill="#000000" font-family="sans-serif" font-size="14" lengthAdjust="spacing" textLength="115" x="105" y="476.7129">:ProductController</text><rect fill="#E2E2F0" height="31.6094" rx="2.5" ry="2.5" style="stroke:#181818;stroke-width:0.5;" width="114" x="314.5" y="5"/><text fill="#000000" font-family="sans-serif" font-size="14" lengthAdjust="spacing" textLength="100" x="321.5" y="26.5332">:ProductService</text><rect fill="#E2E2F0" height="31.6094" rx="2.5" ry="2.5" style="stroke:#181818;stroke-width:0.5;" width="114" x="314.5" y="455.1797"/><text fill="#000000" font-family="sans-serif" font-size="14" lengthAdjust="spacing" textLength="100" x="321.5" y="476.7129">:ProductService</text><rect fill="#E2E2F0" height="31.6094" rx="2.5" ry="2.5" style="stroke:#181818;stroke-width:0.5;" width="67" x="487" y="5"/><text fill="#000000" font-family="sans-serif" font-size="14" lengthAdjust="spacing" textLength="53" x="494" y="26.5332">:Product</text><rect fill="#E2E2F0" height="31.6094" rx="2.5" ry="2.5" style="stroke:#181818;stroke-width:0.5;" width="67" x="487" y="455.1797"/><text fill="#000000" font-family="sans-serif" font-size="14" lengthAdjust="spacing" textLength="53" x="494" y="476.7129">:Product</text><rect fill="#E2E2F0" height="31.6094" rx="2.5" ry="2.5" style="stroke:#181818;stroke-width:0.5;" width="135" x="624" y="5"/><text fill="#000000" font-family="sans-serif" font-size="14" lengthAdjust="spacing" textLength="121" x="631" y="26.5332">:ProductRepository</text><rect fill="#E2E2F0" height="31.6094" rx="2.5" ry="2.5" style="stroke:#181818;stroke-width:0.5;" width="135" x="624" y="455.1797"/><text fill="#000000" font-family="sans-serif" font-size="14" lengthAdjust="spacing" textLength="121" x="631" y="476.7129">:ProductRepository</text><rect fill="#FFFFFF" height="179.1094" style="stroke:#181818;stroke-width:1.0;" width="10" x="157.5" y="69.9609"/><rect fill="#FFFFFF" height="282.1641" style="stroke:#181818;stroke-width:1.0;" width="10" x="366.5" y="125.6641"/><rect fill="#FFFFFF" height="221.4609" style="stroke:#181818;stroke-width:1.0;" width="10" x="515.5" y="156.0156"/><rect fill="#FFFFFF" height="30.3516" style="stroke:#181818;stroke-width:1.0;" width="10" x="520.5" y="279.4219"/><rect fill="#FFFFFF" height="160.7578" style="stroke:#181818;stroke-width:1.0;" width="10" x="686.5" y="186.3672"/><polygon fill="#181818" points="145.5,65.9609,155.5,69.9609,145.5,73.9609,149.5,69.9609" style="stroke:#181818;stroke-width:1.0;"/><line style="stroke:#181818;stroke-width:1.0;" x1="46.5" x2="151.5" y1="69.9609" y2="69.9609"/><text fill="#000000" font-family="sans-serif" font-size="13" font-weight="bold" lengthAdjust="spacing" textLength="7" x="53.5" y="65.1045">1</text><text fill="#000000" font-family="sans-serif" font-size="13" lengthAdjust="spacing" textLength="81" x="64.5" y="65.1045">GET product()</text><path d="M88,84.9609 L149,84.9609 L149,93.3125 L139,103.3125 L88,103.3125 L88,84.9609 " fill="#EEEEEE" style="stroke:#000000;stroke-width:1.5;"/><rect fill="none" height="109.4063" style="stroke:#000000;stroke-width:1.5;" width="681" x="88" y="84.9609"/><text fill="#000000" font-family="sans-serif" font-size="13" font-weight="bold" lengthAdjust="spacing" textLength="16" x="103" y="99.4561">alt</text><text fill="#000000" font-family="sans-serif" font-size="11" font-weight="bold" lengthAdjust="spacing" textLength="75" x="164" y="98.3799">[search by Id]</text><polygon fill="#181818" points="354.5,121.6641,364.5,125.6641,354.5,129.6641,358.5,125.6641" style="stroke:#181818;stroke-width:1.0;"/><line style="stroke:#181818;stroke-width:1.0;" x1="167.5" x2="360.5" y1="125.6641" y2="125.6641"/><text fill="#000000" font-family="sans-serif" font-size="13" font-weight="bold" lengthAdjust="spacing" textLength="7" x="174.5" y="120.8076">2</text><text fill="#000000" font-family="sans-serif" font-size="13" lengthAdjust="spacing" textLength="114" x="185.5" y="120.8076">getProduct(product)</text><polygon fill="#181818" points="503.5,152.0156,513.5,156.0156,503.5,160.0156,507.5,156.0156" style="stroke:#181818;stroke-width:1.0;"/><line style="stroke:#181818;stroke-width:1.0;" x1="376.5" x2="509.5" y1="156.0156" y2="156.0156"/><text fill="#000000" font-family="sans-serif" font-size="13" font-weight="bold" lengthAdjust="spacing" textLength="7" x="383.5" y="151.1592">3</text><text fill="#000000" font-family="sans-serif" font-size="13" lengthAdjust="spacing" textLength="104" x="394.5" y="151.1592">newFrom(product)</text><polygon fill="#181818" points="674.5,182.3672,684.5,186.3672,674.5,190.3672,678.5,186.3672" style="stroke:#181818;stroke-width:1.0;"/><line style="stroke:#181818;stroke-width:1.0;" x1="525.5" x2="680.5" y1="186.3672" y2="186.3672"/><text fill="#000000" font-family="sans-serif" font-size="13" font-weight="bold" lengthAdjust="spacing" textLength="7" x="532.5" y="181.5107">4</text><text fill="#000000" font-family="sans-serif" font-size="13" lengthAdjust="spacing" textLength="95" x="543.5" y="181.5107">findOne(product)</text><path d="M88,208.3672 L149,208.3672 L149,216.7188 L139,226.7188 L88,226.7188 L88,208.3672 " fill="#EEEEEE" style="stroke:#000000;stroke-width:1.5;"/><rect fill="none" height="109.4063" style="stroke:#000000;stroke-width:1.5;" width="681" x="88" y="208.3672"/><text fill="#000000" font-family="sans-serif" font-size="13" font-weight="bold" lengthAdjust="spacing" textLength="16" x="103" y="222.8623">alt</text><text fill="#000000" font-family="sans-serif" font-size="11" font-weight="bold" lengthAdjust="spacing" textLength="96" x="164" y="221.7861">[search by Name]</text><polygon fill="#181818" points="354.5,245.0703,364.5,249.0703,354.5,253.0703,358.5,249.0703" style="stroke:#181818;stroke-width:1.0;"/><line style="stroke:#181818;stroke-width:1.0;stroke-dasharray:2.0,2.0;" x1="162.5" x2="360.5" y1="249.0703" y2="249.0703"/><text fill="#000000" font-family="sans-serif" font-size="13" font-weight="bold" lengthAdjust="spacing" textLength="7" x="169.5" y="244.2139">5</text><text fill="#000000" font-family="sans-serif" font-size="13" lengthAdjust="spacing" textLength="164" x="180.5" y="244.2139">getProductByName(product)</text><polygon fill="#181818" points="508.5,275.4219,518.5,279.4219,508.5,283.4219,512.5,279.4219" style="stroke:#181818;stroke-width:1.0;"/><line style="stroke:#181818;stroke-width:1.0;" x1="376.5" x2="514.5" y1="279.4219" y2="279.4219"/><text fill="#000000" font-family="sans-serif" font-size="13" font-weight="bold" lengthAdjust="spacing" textLength="7" x="383.5" y="274.5654">6</text><text fill="#000000" font-family="sans-serif" font-size="13" lengthAdjust="spacing" textLength="104" x="394.5" y="274.5654">newFrom(product)</text><polygon fill="#181818" points="674.5,305.7734,684.5,309.7734,674.5,313.7734,678.5,309.7734" style="stroke:#181818;stroke-width:1.0;"/><line style="stroke:#181818;stroke-width:1.0;stroke-dasharray:2.0,2.0;" x1="525.5" x2="680.5" y1="309.7734" y2="309.7734"/><text fill="#000000" font-family="sans-serif" font-size="13" font-weight="bold" lengthAdjust="spacing" textLength="7" x="532.5" y="304.917">7</text><text fill="#000000" font-family="sans-serif" font-size="13" lengthAdjust="spacing" textLength="121" x="543.5" y="304.917">findByName(product)</text><polygon fill="#181818" points="536.5,343.125,526.5,347.125,536.5,351.125,532.5,347.125" style="stroke:#181818;stroke-width:1.0;"/><line style="stroke:#181818;stroke-width:1.0;stroke-dasharray:2.0,2.0;" x1="530.5" x2="690.5" y1="347.125" y2="347.125"/><text fill="#000000" font-family="sans-serif" font-size="13" font-weight="bold" lengthAdjust="spacing" textLength="7" x="542.5" y="342.2686">8</text><text fill="#000000" font-family="sans-serif" font-size="13" lengthAdjust="spacing" textLength="49" x="553.5" y="342.2686">success</text><polygon fill="#181818" points="387.5,373.4766,377.5,377.4766,387.5,381.4766,383.5,377.4766" style="stroke:#181818;stroke-width:1.0;"/><line style="stroke:#181818;stroke-width:1.0;stroke-dasharray:2.0,2.0;" x1="381.5" x2="519.5" y1="377.4766" y2="377.4766"/><text fill="#000000" font-family="sans-serif" font-size="13" font-weight="bold" lengthAdjust="spacing" textLength="7" x="393.5" y="372.6201">9</text><text fill="#000000" font-family="sans-serif" font-size="13" lengthAdjust="spacing" textLength="49" x="404.5" y="372.6201">success</text><polygon fill="#181818" points="173.5,403.8281,163.5,407.8281,173.5,411.8281,169.5,407.8281" style="stroke:#181818;stroke-width:1.0;"/><line style="stroke:#181818;stroke-width:1.0;stroke-dasharray:2.0,2.0;" x1="167.5" x2="370.5" y1="407.8281" y2="407.8281"/><text fill="#000000" font-family="sans-serif" font-size="13" font-weight="bold" lengthAdjust="spacing" textLength="14" x="179.5" y="402.9717">10</text><text fill="#000000" font-family="sans-serif" font-size="13" lengthAdjust="spacing" textLength="49" x="197.5" y="402.9717">success</text><polygon fill="#181818" points="57.5,434.1797,47.5,438.1797,57.5,442.1797,53.5,438.1797" style="stroke:#181818;stroke-width:1.0;"/><line style="stroke:#181818;stroke-width:1.0;stroke-dasharray:2.0,2.0;" x1="51.5" x2="161.5" y1="438.1797" y2="438.1797"/><text fill="#000000" font-family="sans-serif" font-size="13" font-weight="bold" lengthAdjust="spacing" textLength="14" x="63.5" y="433.3232">11</text><text fill="#000000" font-family="sans-serif" font-size="13" lengthAdjust="spacing" textLength="49" x="81.5" y="433.3232">success</text><!--MD5=[acf55bb531b95191aedbae66262c1c40]
@startuml
'https://plantuml.com/sequence-diagram
autoactivate on
autonumber

participant ":Moderator" as Moderator
participant ":ProductController" as Controller
participant ":ProductService" as Service
participant ":Product" as Product
participant ":ProductRepository" as Repository

Moderator -> Controller : GET product()
alt search by Id
Controller -> Service : getProduct(product)
Service -> Product : newFrom(product)
Product -> Repository :  findOne(product)
end alt
alt search by Name
Controller - -> Service : getProductByName(product)
Service -> Product : newFrom(product)
Product - -> Repository :  findByName(product)
end alt
Repository - -> Product : success
Product - -> Service : success
Service - -> Controller : success
Controller - -> Moderator : success

@enduml

@startuml
autoactivate on
autonumber

participant ":Moderator" as Moderator
participant ":ProductController" as Controller
participant ":ProductService" as Service
participant ":Product" as Product
participant ":ProductRepository" as Repository

Moderator -> Controller : GET product()
alt search by Id
Controller -> Service : getProduct(product)
Service -> Product : newFrom(product)
Product -> Repository :  findOne(product)
end alt
alt search by Name
Controller - -> Service : getProductByName(product)
Service -> Product : newFrom(product)
Product - -> Repository :  findByName(product)
end alt
Repository - -> Product : success
Product - -> Service : success
Service - -> Controller : success
Controller - -> Moderator : success

@enduml

PlantUML version 1.2022.4(Sat Apr 09 14:29:17 BST 2022)
(GPL source distribution)
Java Runtime: OpenJDK Runtime Environment
JVM: OpenJDK 64-Bit Server VM
Default Encoding: Cp1252
Language: pt
Country: PT
--></g></svg>