<?xml version="1.0" encoding="UTF-8" standalone="no"?><svg xmlns="http://www.w3.org/2000/svg" xmlns:xlink="http://www.w3.org/1999/xlink" contentStyleType="text/css" height="298px" preserveAspectRatio="none" style="width:776px;height:298px;background:#FFFFFF;" version="1.1" viewBox="0 0 776 298" width="776px" zoomAndPan="magnify"><defs/><g><rect fill="#FFFFFF" height="205.4609" style="stroke:#181818;stroke-width:1.0;" width="10" x="39.5" y="47.6094"/><rect fill="#FFFFFF" height="174.1094" style="stroke:#181818;stroke-width:1.0;" width="10" x="261.5" y="69.9609"/><rect fill="#FFFFFF" height="113.4063" style="stroke:#181818;stroke-width:1.0;" width="10" x="415.5" y="100.3125"/><rect fill="#FFFFFF" height="41.5273" style="stroke:#181818;stroke-width:1.0;" width="10" x="611.5" y="141.8398"/><line style="stroke:#181818;stroke-width:0.5;stroke-dasharray:5.0,5.0;" x1="44" x2="44" y1="37.6094" y2="262.0703"/><line style="stroke:#181818;stroke-width:0.5;stroke-dasharray:5.0,5.0;" x1="266" x2="266" y1="37.6094" y2="262.0703"/><line style="stroke:#181818;stroke-width:0.5;stroke-dasharray:5.0,5.0;" x1="420.5" x2="420.5" y1="37.6094" y2="262.0703"/><line style="stroke:#181818;stroke-width:0.5;stroke-dasharray:5.0,5.0;" x1="616" x2="616" y1="37.6094" y2="262.0703"/><rect fill="#E2E2F0" height="31.6094" rx="2.5" ry="2.5" style="stroke:#181818;stroke-width:0.5;" width="79" x="5" y="5"/><text fill="#000000" font-family="sans-serif" font-size="14" lengthAdjust="spacing" textLength="65" x="12" y="26.5332">:Customer</text><rect fill="#E2E2F0" height="31.6094" rx="2.5" ry="2.5" style="stroke:#181818;stroke-width:0.5;" width="79" x="5" y="261.0703"/><text fill="#000000" font-family="sans-serif" font-size="14" lengthAdjust="spacing" textLength="65" x="12" y="282.6035">:Customer</text><rect fill="#E2E2F0" height="31.6094" rx="2.5" ry="2.5" style="stroke:#181818;stroke-width:0.5;" width="125" x="204" y="5"/><text fill="#000000" font-family="sans-serif" font-size="14" lengthAdjust="spacing" textLength="111" x="211" y="26.5332">:ReviewController</text><rect fill="#E2E2F0" height="31.6094" rx="2.5" ry="2.5" style="stroke:#181818;stroke-width:0.5;" width="125" x="204" y="261.0703"/><text fill="#000000" font-family="sans-serif" font-size="14" lengthAdjust="spacing" textLength="111" x="211" y="282.6035">:ReviewController</text><rect fill="#E2E2F0" height="31.6094" rx="2.5" ry="2.5" style="stroke:#181818;stroke-width:0.5;" width="110" x="365.5" y="5"/><text fill="#000000" font-family="sans-serif" font-size="14" lengthAdjust="spacing" textLength="96" x="372.5" y="26.5332">:ReviewService</text><rect fill="#E2E2F0" height="31.6094" rx="2.5" ry="2.5" style="stroke:#181818;stroke-width:0.5;" width="110" x="365.5" y="261.0703"/><text fill="#000000" font-family="sans-serif" font-size="14" lengthAdjust="spacing" textLength="96" x="372.5" y="282.6035">:ReviewService</text><rect fill="#E2E2F0" height="31.6094" rx="2.5" ry="2.5" style="stroke:#181818;stroke-width:0.5;" width="131" x="551" y="5"/><text fill="#000000" font-family="sans-serif" font-size="14" lengthAdjust="spacing" textLength="117" x="558" y="26.5332">:ReviewRepository</text><rect fill="#E2E2F0" height="31.6094" rx="2.5" ry="2.5" style="stroke:#181818;stroke-width:0.5;" width="131" x="551" y="261.0703"/><text fill="#000000" font-family="sans-serif" font-size="14" lengthAdjust="spacing" textLength="117" x="558" y="282.6035">:ReviewRepository</text><rect fill="#FFFFFF" height="205.4609" style="stroke:#181818;stroke-width:1.0;" width="10" x="39.5" y="47.6094"/><rect fill="#FFFFFF" height="174.1094" style="stroke:#181818;stroke-width:1.0;" width="10" x="261.5" y="69.9609"/><rect fill="#FFFFFF" height="113.4063" style="stroke:#181818;stroke-width:1.0;" width="10" x="415.5" y="100.3125"/><rect fill="#FFFFFF" height="41.5273" style="stroke:#181818;stroke-width:1.0;" width="10" x="611.5" y="141.8398"/><polygon fill="#181818" points="249.5,65.9609,259.5,69.9609,249.5,73.9609,253.5,69.9609" style="stroke:#181818;stroke-width:1.0;"/><line style="stroke:#181818;stroke-width:1.0;" x1="49.5" x2="255.5" y1="69.9609" y2="69.9609"/><text fill="#000000" font-family="sans-serif" font-size="13" font-weight="bold" lengthAdjust="spacing" textLength="7" x="56.5" y="65.1045">1</text><text fill="#000000" font-family="sans-serif" font-size="13" lengthAdjust="spacing" textLength="182" x="67.5" y="65.1045">DELETE deleteReview(reviewId)</text><polygon fill="#181818" points="403.5,96.3125,413.5,100.3125,403.5,104.3125,407.5,100.3125" style="stroke:#181818;stroke-width:1.0;"/><line style="stroke:#181818;stroke-width:1.0;" x1="271.5" x2="409.5" y1="100.3125" y2="100.3125"/><text fill="#000000" font-family="sans-serif" font-size="13" font-weight="bold" lengthAdjust="spacing" textLength="7" x="278.5" y="95.4561">2</text><text fill="#000000" font-family="sans-serif" font-size="13" lengthAdjust="spacing" textLength="114" x="289.5" y="95.4561">deleteById(reviewId)</text><polygon fill="#181818" points="599.5,137.8398,609.5,141.8398,599.5,145.8398,603.5,141.8398" style="stroke:#181818;stroke-width:1.0;"/><line style="stroke:#181818;stroke-width:1.0;" x1="425.5" x2="605.5" y1="141.8398" y2="141.8398"/><text fill="#000000" font-family="sans-serif" font-size="13" font-weight="bold" lengthAdjust="spacing" textLength="7" x="432.5" y="136.9834">3</text><text fill="#000000" font-family="sans-serif" font-size="13" lengthAdjust="spacing" textLength="156" x="443.5" y="136.9834">deleteByIdIfMatch(reviewId)</text><path d="M626,113.3125 L626,155.3125 L769,155.3125 L769,123.3125 L759,113.3125 L626,113.3125 " fill="#FEFFDD" style="stroke:#181818;stroke-width:0.5;"/><path d="M759,113.3125 L759,123.3125 L769,123.3125 L759,113.3125 " fill="#FEFFDD" style="stroke:#181818;stroke-width:0.5;"/><text fill="#000000" font-family="sans-serif" font-size="13" lengthAdjust="spacing" textLength="90" x="632" y="131.8076">only successful</text><text fill="#000000" font-family="sans-serif" font-size="13" lengthAdjust="spacing" textLength="122" x="632" y="148.1592">if review has no votes</text><polygon fill="#181818" points="436.5,179.3672,426.5,183.3672,436.5,187.3672,432.5,183.3672" style="stroke:#181818;stroke-width:1.0;"/><line style="stroke:#181818;stroke-width:1.0;stroke-dasharray:2.0,2.0;" x1="430.5" x2="615.5" y1="183.3672" y2="183.3672"/><text fill="#000000" font-family="sans-serif" font-size="13" font-weight="bold" lengthAdjust="spacing" textLength="7" x="442.5" y="178.5107">4</text><text fill="#000000" font-family="sans-serif" font-size="13" lengthAdjust="spacing" textLength="49" x="453.5" y="178.5107">success</text><polygon fill="#181818" points="282.5,209.7188,272.5,213.7188,282.5,217.7188,278.5,213.7188" style="stroke:#181818;stroke-width:1.0;"/><line style="stroke:#181818;stroke-width:1.0;stroke-dasharray:2.0,2.0;" x1="276.5" x2="419.5" y1="213.7188" y2="213.7188"/><text fill="#000000" font-family="sans-serif" font-size="13" font-weight="bold" lengthAdjust="spacing" textLength="7" x="288.5" y="208.8623">5</text><text fill="#000000" font-family="sans-serif" font-size="13" lengthAdjust="spacing" textLength="49" x="299.5" y="208.8623">success</text><polygon fill="#181818" points="60.5,240.0703,50.5,244.0703,60.5,248.0703,56.5,244.0703" style="stroke:#181818;stroke-width:1.0;"/><line style="stroke:#181818;stroke-width:1.0;stroke-dasharray:2.0,2.0;" x1="54.5" x2="265.5" y1="244.0703" y2="244.0703"/><text fill="#000000" font-family="sans-serif" font-size="13" font-weight="bold" lengthAdjust="spacing" textLength="7" x="66.5" y="239.2139">6</text><text fill="#000000" font-family="sans-serif" font-size="13" lengthAdjust="spacing" textLength="49" x="77.5" y="239.2139">success</text><!--MD5=[bee63bbd20717b921a3ff177b932841d]
@startuml
'https://plantuml.com/sequence-diagram
autoactivate on
autonumber

participant ":Customer" as Customer
participant ":ReviewController" as Controller
participant ":ReviewService" as Service
participant ":ReviewRepository" as Repository

activate Customer

Customer -> Controller : DELETE deleteReview(reviewId)
Controller -> Service : deleteById(reviewId)
Service -> Repository : deleteByIdIfMatch(reviewId)
note right
only successful 
if review has no votes
end note
Repository - -> Service : success
Service - -> Controller : success
Controller - -> Customer : success


@enduml

@startuml
autoactivate on
autonumber

participant ":Customer" as Customer
participant ":ReviewController" as Controller
participant ":ReviewService" as Service
participant ":ReviewRepository" as Repository

activate Customer

Customer -> Controller : DELETE deleteReview(reviewId)
Controller -> Service : deleteById(reviewId)
Service -> Repository : deleteByIdIfMatch(reviewId)
note right
only successful 
if review has no votes
end note
Repository - -> Service : success
Service - -> Controller : success
Controller - -> Customer : success


@enduml

PlantUML version 1.2022.4(Sat Apr 09 14:29:17 BST 2022)
(GPL source distribution)
Java Runtime: OpenJDK Runtime Environment
JVM: OpenJDK 64-Bit Server VM
Default Encoding: Cp1252
Language: pt
Country: PT
--></g></svg>