<?xml version="1.0" encoding="UTF-8" standalone="no"?><svg xmlns="http://www.w3.org/2000/svg" xmlns:xlink="http://www.w3.org/1999/xlink" contentStyleType="text/css" height="626px" preserveAspectRatio="none" style="width:464px;height:626px;background:#FFFFFF;" version="1.1" viewBox="0 0 464 626" width="464px" zoomAndPan="magnify"><defs/><g><rect fill="#FFFFFF" height="442.9219" style="stroke:#181818;stroke-width:1.0;" width="10" x="32.5" y="92.6094"/><rect fill="#FFFFFF" height="30.3516" style="stroke:#181818;stroke-width:1.0;" width="10" x="279.5" y="114.9609"/><rect fill="#FFFFFF" height="30.3516" style="stroke:#181818;stroke-width:1.0;" width="10" x="279.5" y="175.6641"/><rect fill="#FFFFFF" height="30.3516" style="stroke:#181818;stroke-width:1.0;" width="10" x="279.5" y="236.3672"/><rect fill="#FFFFFF" height="161.7578" style="stroke:#181818;stroke-width:1.0;" width="10" x="279.5" y="297.0703"/><rect fill="#FFFFFF" height="60.7031" style="stroke:#181818;stroke-width:1.0;" width="10" x="284.5" y="335.4219"/><rect fill="#FFFFFF" height="30.3516" style="stroke:#181818;stroke-width:1.0;" width="10" x="279.5" y="489.1797"/><rect height="48.7031" style="stroke:#000000;stroke-width:1.5;fill:none;" width="314.5" x="10" y="355.4219"/><rect height="109.4063" style="stroke:#000000;stroke-width:1.5;fill:none;" width="314.5" x="10" y="418.125"/><line style="stroke:#181818;stroke-width:0.5;fill:none;stroke-dasharray:5.0,5.0;" x1="37" x2="37" y1="82.6094" y2="544.5313"/><line style="stroke:#181818;stroke-width:0.5;fill:none;stroke-dasharray:5.0,5.0;" x1="284.5" x2="284.5" y1="82.6094" y2="544.5313"/><text fill="#000000" font-family="sans-serif" font-size="14" lengthAdjust="spacing" textLength="29" x="20" y="79.5332">User</text><ellipse cx="37.5" cy="13.5" fill="#E2E2F0" rx="8" ry="8" style="stroke:#181818;stroke-width:0.5;"/><path d="M37.5,21.5 L37.5,48.5 M24.5,29.5 L50.5,29.5 M37.5,48.5 L24.5,63.5 M37.5,48.5 L50.5,63.5 " fill="none" style="stroke:#181818;stroke-width:0.5;"/><text fill="#000000" font-family="sans-serif" font-size="14" lengthAdjust="spacing" textLength="29" x="20" y="558.0645">User</text><ellipse cx="37.5" cy="569.6406" fill="#E2E2F0" rx="8" ry="8" style="stroke:#181818;stroke-width:0.5;"/><path d="M37.5,577.6406 L37.5,604.6406 M24.5,585.6406 L50.5,585.6406 M37.5,604.6406 L24.5,619.6406 M37.5,604.6406 L50.5,619.6406 " fill="none" style="stroke:#181818;stroke-width:0.5;"/><rect fill="#E2E2F0" height="31.6094" rx="2.5" ry="2.5" style="stroke:#181818;stroke-width:0.5;" width="60" x="254.5" y="50"/><text fill="#000000" font-family="sans-serif" font-size="14" lengthAdjust="spacing" textLength="46" x="261.5" y="71.5332">System</text><rect fill="#E2E2F0" height="31.6094" rx="2.5" ry="2.5" style="stroke:#181818;stroke-width:0.5;" width="60" x="254.5" y="543.5313"/><text fill="#000000" font-family="sans-serif" font-size="14" lengthAdjust="spacing" textLength="46" x="261.5" y="565.0645">System</text><rect fill="#FFFFFF" height="442.9219" style="stroke:#181818;stroke-width:1.0;" width="10" x="32.5" y="92.6094"/><rect fill="#FFFFFF" height="30.3516" style="stroke:#181818;stroke-width:1.0;" width="10" x="279.5" y="114.9609"/><rect fill="#FFFFFF" height="30.3516" style="stroke:#181818;stroke-width:1.0;" width="10" x="279.5" y="175.6641"/><rect fill="#FFFFFF" height="30.3516" style="stroke:#181818;stroke-width:1.0;" width="10" x="279.5" y="236.3672"/><rect fill="#FFFFFF" height="161.7578" style="stroke:#181818;stroke-width:1.0;" width="10" x="279.5" y="297.0703"/><rect fill="#FFFFFF" height="60.7031" style="stroke:#181818;stroke-width:1.0;" width="10" x="284.5" y="335.4219"/><rect fill="#FFFFFF" height="30.3516" style="stroke:#181818;stroke-width:1.0;" width="10" x="279.5" y="489.1797"/><polygon fill="#181818" points="267.5,110.9609,277.5,114.9609,267.5,118.9609,271.5,114.9609" style="stroke:#181818;stroke-width:1.0;"/><line style="stroke:#181818;stroke-width:1.0;" x1="42.5" x2="273.5" y1="114.9609" y2="114.9609"/><text fill="#000000" font-family="sans-serif" font-size="13" font-weight="bold" lengthAdjust="spacing" textLength="7" x="49.5" y="110.1045">1</text><text fill="#000000" font-family="sans-serif" font-size="13" lengthAdjust="spacing" textLength="193" x="60.5" y="110.1045">Asks to show catalog of products</text><polygon fill="#181818" points="53.5,141.3125,43.5,145.3125,53.5,149.3125,49.5,145.3125" style="stroke:#181818;stroke-width:1.0;"/><line style="stroke:#181818;stroke-width:1.0;stroke-dasharray:2.0,2.0;" x1="47.5" x2="283.5" y1="145.3125" y2="145.3125"/><text fill="#000000" font-family="sans-serif" font-size="13" font-weight="bold" lengthAdjust="spacing" textLength="7" x="59.5" y="140.4561">2</text><text fill="#000000" font-family="sans-serif" font-size="13" lengthAdjust="spacing" textLength="152" x="70.5" y="140.4561">Return catalog of products</text><polygon fill="#181818" points="267.5,171.6641,277.5,175.6641,267.5,179.6641,271.5,175.6641" style="stroke:#181818;stroke-width:1.0;"/><line style="stroke:#181818;stroke-width:1.0;" x1="42.5" x2="273.5" y1="175.6641" y2="175.6641"/><text fill="#000000" font-family="sans-serif" font-size="13" font-weight="bold" lengthAdjust="spacing" textLength="7" x="49.5" y="170.8076">3</text><text fill="#000000" font-family="sans-serif" font-size="13" lengthAdjust="spacing" textLength="102" x="60.5" y="170.8076">Selects a product</text><polygon fill="#181818" points="53.5,202.0156,43.5,206.0156,53.5,210.0156,49.5,206.0156" style="stroke:#181818;stroke-width:1.0;"/><line style="stroke:#181818;stroke-width:1.0;stroke-dasharray:2.0,2.0;" x1="47.5" x2="283.5" y1="206.0156" y2="206.0156"/><text fill="#000000" font-family="sans-serif" font-size="13" font-weight="bold" lengthAdjust="spacing" textLength="7" x="59.5" y="201.1592">4</text><text fill="#000000" font-family="sans-serif" font-size="13" lengthAdjust="spacing" textLength="132" x="70.5" y="201.1592">Show selected product</text><polygon fill="#181818" points="267.5,232.3672,277.5,236.3672,267.5,240.3672,271.5,236.3672" style="stroke:#181818;stroke-width:1.0;"/><line style="stroke:#181818;stroke-width:1.0;" x1="42.5" x2="273.5" y1="236.3672" y2="236.3672"/><text fill="#000000" font-family="sans-serif" font-size="13" font-weight="bold" lengthAdjust="spacing" textLength="7" x="49.5" y="231.5107">5</text><text fill="#000000" font-family="sans-serif" font-size="13" lengthAdjust="spacing" textLength="137" x="60.5" y="231.5107">Asks to see his reviews</text><polygon fill="#181818" points="53.5,262.7188,43.5,266.7188,53.5,270.7188,49.5,266.7188" style="stroke:#181818;stroke-width:1.0;"/><line style="stroke:#181818;stroke-width:1.0;stroke-dasharray:2.0,2.0;" x1="47.5" x2="283.5" y1="266.7188" y2="266.7188"/><text fill="#000000" font-family="sans-serif" font-size="13" font-weight="bold" lengthAdjust="spacing" textLength="7" x="59.5" y="261.8623">6</text><text fill="#000000" font-family="sans-serif" font-size="13" lengthAdjust="spacing" textLength="138" x="70.5" y="261.8623">Show Customer reviews</text><polygon fill="#181818" points="267.5,293.0703,277.5,297.0703,267.5,301.0703,271.5,297.0703" style="stroke:#181818;stroke-width:1.0;"/><line style="stroke:#181818;stroke-width:1.0;" x1="42.5" x2="273.5" y1="297.0703" y2="297.0703"/><text fill="#000000" font-family="sans-serif" font-size="13" font-weight="bold" lengthAdjust="spacing" textLength="7" x="49.5" y="292.2139">7</text><text fill="#000000" font-family="sans-serif" font-size="13" lengthAdjust="spacing" textLength="76" x="60.5" y="292.2139">Delete review</text><line style="stroke:#181818;stroke-width:1.0;" x1="289.5" x2="336.5" y1="322.4219" y2="322.4219"/><line style="stroke:#181818;stroke-width:1.0;" x1="336.5" x2="336.5" y1="322.4219" y2="335.4219"/><line style="stroke:#181818;stroke-width:1.0;" x1="295.5" x2="336.5" y1="335.4219" y2="335.4219"/><polygon fill="#181818" points="305.5,331.4219,295.5,335.4219,305.5,339.4219,301.5,335.4219" style="stroke:#181818;stroke-width:1.0;"/><text fill="#000000" font-family="sans-serif" font-size="13" font-weight="bold" lengthAdjust="spacing" textLength="7" x="301.5" y="317.5654">8</text><text fill="#000000" font-family="sans-serif" font-size="13" lengthAdjust="spacing" textLength="145" x="312.5" y="317.5654">Check if review has votes</text><path d="M10,355.4219 L193,355.4219 L193,363.7734 L183,373.7734 L10,373.7734 L10,355.4219 " fill="#EEEEEE" style="stroke:#000000;stroke-width:1.5;"/><rect fill="none" height="48.7031" style="stroke:#000000;stroke-width:1.5;" width="314.5" x="10" y="355.4219"/><text fill="#000000" font-family="sans-serif" font-size="13" font-weight="bold" lengthAdjust="spacing" textLength="138" x="25" y="369.917">alt (Review has votes)</text><polygon fill="#181818" points="53.5,392.125,43.5,396.125,53.5,400.125,49.5,396.125" style="stroke:#181818;stroke-width:1.0;"/><line style="stroke:#181818;stroke-width:1.0;stroke-dasharray:2.0,2.0;" x1="47.5" x2="278.5" y1="396.125" y2="396.125"/><text fill="#000000" font-family="sans-serif" font-size="13" font-weight="bold" lengthAdjust="spacing" textLength="7" x="59.5" y="391.2686">9</text><text fill="#000000" font-family="sans-serif" font-size="13" lengthAdjust="spacing" textLength="202" x="70.5" y="391.2686">Informs that is impossible to delete</text><path d="M10,418.125 L213,418.125 L213,426.4766 L203,436.4766 L10,436.4766 L10,418.125 " fill="#EEEEEE" style="stroke:#000000;stroke-width:1.5;"/><rect fill="none" height="109.4063" style="stroke:#000000;stroke-width:1.5;" width="314.5" x="10" y="418.125"/><text fill="#000000" font-family="sans-serif" font-size="13" font-weight="bold" lengthAdjust="spacing" textLength="158" x="25" y="432.6201">alt (Review has no votes)</text><polygon fill="#181818" points="53.5,454.8281,43.5,458.8281,53.5,462.8281,49.5,458.8281" style="stroke:#181818;stroke-width:1.0;"/><line style="stroke:#181818;stroke-width:1.0;stroke-dasharray:2.0,2.0;" x1="47.5" x2="283.5" y1="458.8281" y2="458.8281"/><text fill="#000000" font-family="sans-serif" font-size="13" font-weight="bold" lengthAdjust="spacing" textLength="14" x="59.5" y="453.9717">10</text><text fill="#000000" font-family="sans-serif" font-size="13" lengthAdjust="spacing" textLength="122" x="77.5" y="453.9717">Asks for confirmation</text><polygon fill="#181818" points="267.5,485.1797,277.5,489.1797,267.5,493.1797,271.5,489.1797" style="stroke:#181818;stroke-width:1.0;"/><line style="stroke:#181818;stroke-width:1.0;" x1="42.5" x2="273.5" y1="489.1797" y2="489.1797"/><text fill="#000000" font-family="sans-serif" font-size="13" font-weight="bold" lengthAdjust="spacing" textLength="14" x="49.5" y="484.3232">11</text><text fill="#000000" font-family="sans-serif" font-size="13" lengthAdjust="spacing" textLength="51" x="67.5" y="484.3232">Confirms</text><polygon fill="#181818" points="53.5,515.5313,43.5,519.5313,53.5,523.5313,49.5,519.5313" style="stroke:#181818;stroke-width:1.0;"/><line style="stroke:#181818;stroke-width:1.0;stroke-dasharray:2.0,2.0;" x1="47.5" x2="283.5" y1="519.5313" y2="519.5313"/><text fill="#000000" font-family="sans-serif" font-size="13" font-weight="bold" lengthAdjust="spacing" textLength="14" x="59.5" y="514.6748">12</text><text fill="#000000" font-family="sans-serif" font-size="13" lengthAdjust="spacing" textLength="109" x="77.5" y="514.6748">Informs of success</text><!--MD5=[8dcb0da5a0126bdb58a441261a0abddf]
@startuml
'https://plantuml.com/sequence-diagram

autoactivate on
autonumber

actor "User" as User
participant "System" as System

activate User

User -> System: Asks to show catalog of products
System - -> User: Return catalog of products
User -> System: Selects a product
System - -> User: Show selected product
User -> System: Asks to see his reviews
System - -> User: Show Customer reviews
User -> System: Delete review
System -> System: Check if review has votes
group alt (Review has votes)
System - -> User: Informs that is impossible to delete
end alt
group alt (Review has no votes)
System - -> User: Asks for confirmation
User -> System: Confirms
System - -> User: Informs of success
end alt
@enduml

@startuml

autoactivate on
autonumber

actor "User" as User
participant "System" as System

activate User

User -> System: Asks to show catalog of products
System - -> User: Return catalog of products
User -> System: Selects a product
System - -> User: Show selected product
User -> System: Asks to see his reviews
System - -> User: Show Customer reviews
User -> System: Delete review
System -> System: Check if review has votes
group alt (Review has votes)
System - -> User: Informs that is impossible to delete
end alt
group alt (Review has no votes)
System - -> User: Asks for confirmation
User -> System: Confirms
System - -> User: Informs of success
end alt
@enduml

PlantUML version 1.2022.4(Sat Apr 09 14:29:17 BST 2022)
(GPL source distribution)
Java Runtime: OpenJDK Runtime Environment
JVM: OpenJDK 64-Bit Server VM
Default Encoding: Cp1252
Language: pt
Country: PT
--></g></svg>